<svg xmlns="http://www.w3.org/2000/svg" width="24" height="24" fill="none" viewBox="0 0 24 24" id="balloon">
  <path fill="#854D9C" fill-rule="evenodd" d="M11.75 5.99395C11.7534 5.57975 12.0919 5.24668 12.5061 5.25002 14.5591 5.26659 16.2334 6.94088 16.25 8.99395 16.2533 9.40815 15.9203 9.74663 15.5061 9.74998 15.0919 9.75332 14.7534 9.42025 14.75 9.00605 14.7401 7.77194 13.7281 6.75993 12.4939 6.74998 12.0797 6.74663 11.7467 6.40815 11.75 5.99395zM11.1754 17.2673C11.5373 17.4688 11.6673 17.9256 11.4657 18.2875 11.3872 18.4284 11.3367 18.5192 11.301 18.5881 11.2737 18.6409 11.2651 18.6622 11.2639 18.665 11.2134 18.8326 11.3135 19.0448 11.5504 19.092 11.5504 19.0919 11.5733 19.0955 11.6466 19.0976 11.7274 19.0999 11.835 19.1 12.0001 19.1 12.1652 19.1 12.2728 19.0999 12.3536 19.0976 12.4266 19.0955 12.4496 19.0919 12.4498 19.092 12.4498 19.092 12.4498 19.092 12.4498 19.092 12.4498 19.092 12.4494 19.092 12.4487 19.0922 12.4491 19.0921 12.4494 19.092 12.4498 19.092M11.1754 17.2673C10.8136 17.0657 10.3568 17.1957 10.1553 17.5575L11.1754 17.2673zM12.8247 17.2673C13.1866 17.0657 13.6433 17.1957 13.8449 17.5575 13.8559 17.5772 13.8668 17.5969 13.8778 17.6164 13.9962 17.8285 14.11 18.032 14.167 18.2144 14.4992 19.2767 13.8108 20.3461 12.7501 20.5616V21.9998C12.7501 22.414 12.4143 22.7498 12.0001 22.7498 11.5859 22.7498 11.2501 22.414 11.2501 21.9998V20.5616C10.1894 20.3461 9.50094 19.2767 9.83316 18.2144 9.8902 18.032 10.0039 17.8285 10.1224 17.6165 10.1333 17.5969 10.1443 17.5773 10.1553 17.5575M12.8247 17.2673C12.4629 17.4688 12.3329 17.9256 12.5345 18.2875L12.8247 17.2673zM12.5345 18.2875C12.613 18.4284 12.6634 18.5192 12.6991 18.5881L12.5345 18.2875zM12.6991 18.5881C12.7265 18.6409 12.7351 18.6622 12.7363 18.665L12.6991 18.5881z" clip-rule="evenodd"></path>
  <path fill="#CD4ED3" fill-rule="evenodd" d="M11.9334 2.75023C8.21037 2.72018 5.22018 5.71037 5.25023 9.43343C5.28098 13.2449 8.28773 16.7205 11.9455 16.75C15.6219 16.7797 18.7802 13.3378 18.7498 9.56657C18.7197 5.83406 15.6659 2.78035 11.9334 2.75023ZM3.75027 9.44553C3.71347 4.8846 7.3846 1.21347 11.9455 1.25027C16.497 1.287 20.213 5.00299 20.2497 9.55447C20.2861 14.0672 16.541 18.2872 11.9334 18.25C7.30724 18.2126 3.78637 13.918 3.75027 9.44553Z" clip-rule="evenodd"></path>
</svg>
